<mxfile host="65bd71144e">
    <diagram id="CoM79KIhaJqpNIzCeClB" name="Page-1">
        <mxGraphModel dx="990" dy="1078" grid="1" gridSize="10" guides="1" tooltips="1" connect="1" arrows="1" fold="1" page="1" pageScale="1" pageWidth="850" pageHeight="1100" math="0" shadow="0">
            <root>
                <mxCell id="0"/>
                <mxCell id="1" parent="0"/>
                <mxCell id="6" value="system checks if the user already has saved this article" style="rounded=1;whiteSpace=wrap;html=1;arcSize=40;fontColor=#000000;fillColor=#ffffc0;strokeColor=#ff0000;strokeWidth=3;fontSize=18;" parent="1" vertex="1">
                    <mxGeometry x="110" y="120" width="181.5" height="90" as="geometry"/>
                </mxCell>
                <mxCell id="7" value="" style="edgeStyle=orthogonalEdgeStyle;html=1;verticalAlign=bottom;endArrow=open;endSize=8;strokeColor=#ff0000;fontSize=18;startArrow=none;exitX=0.5;exitY=1;exitDx=0;exitDy=0;entryX=0.5;entryY=0;entryDx=0;entryDy=0;" parent="1" source="6" target="13" edge="1">
                    <mxGeometry relative="1" as="geometry">
                        <mxPoint x="178.55555555555554" y="310" as="targetPoint"/>
                        <mxPoint x="310.5" y="248.00000000000023" as="sourcePoint"/>
                    </mxGeometry>
                </mxCell>
                <mxCell id="8" value="so save the article" style="rounded=1;whiteSpace=wrap;html=1;arcSize=40;fontColor=#000000;fillColor=#ffffc0;strokeColor=#ff0000;strokeWidth=3;fontSize=18;" parent="1" vertex="1">
                    <mxGeometry x="119.25" y="320" width="120" height="72" as="geometry"/>
                </mxCell>
                <mxCell id="10" value="&lt;p style=&quot;margin: 0px; font-variant-numeric: normal; font-variant-east-asian: normal; font-variant-alternates: normal; font-size-adjust: none; font-kerning: auto; font-optical-sizing: auto; font-feature-settings: normal; font-variation-settings: normal; font-variant-position: normal; font-stretch: normal; line-height: normal; font-family: &amp;quot;Helvetica Neue&amp;quot;;&quot; class=&quot;p1&quot;&gt;so unsave the article&lt;/p&gt;" style="rounded=1;whiteSpace=wrap;html=1;arcSize=40;fontColor=#000000;fillColor=#ffffc0;strokeColor=#ff0000;strokeWidth=3;fontFamily=Helvetica;fontSize=18;align=center;" parent="1" vertex="1">
                    <mxGeometry x="90" y="450" width="138.5" height="70" as="geometry"/>
                </mxCell>
                <mxCell id="11" value="" style="edgeStyle=orthogonalEdgeStyle;html=1;verticalAlign=bottom;endArrow=none;endSize=8;strokeColor=#ff0000;labelBackgroundColor=none;fontFamily=Helvetica;fontSize=18;fontColor=#FFFFFF;exitX=1;exitY=0.5;exitDx=0;exitDy=0;" parent="1" source="10" target="12" edge="1">
                    <mxGeometry relative="1" as="geometry">
                        <mxPoint x="427.9999999999998" y="500" as="targetPoint"/>
                        <mxPoint x="550" y="486" as="sourcePoint"/>
                    </mxGeometry>
                </mxCell>
                <mxCell id="12" value="" style="ellipse;html=1;shape=endState;fillColor=#000000;strokeColor=#ff0000;strokeWidth=3;fontFamily=Helvetica;fontSize=8;fontColor=#FFFFFF;" parent="1" vertex="1">
                    <mxGeometry x="270" y="410" width="30" height="30" as="geometry"/>
                </mxCell>
                <mxCell id="13" value="" style="rhombus;whiteSpace=wrap;html=1;fillColor=#ffffc0;strokeColor=#ff0000;strokeWidth=3;fontSize=18;" parent="1" vertex="1">
                    <mxGeometry x="40" y="336" width="30" height="40" as="geometry"/>
                </mxCell>
                <mxCell id="14" value="no" style="edgeStyle=orthogonalEdgeStyle;html=1;align=left;verticalAlign=bottom;endArrow=open;endSize=8;strokeColor=#ff0000;exitX=1;exitY=0.5;exitDx=0;exitDy=0;entryX=0;entryY=0.5;entryDx=0;entryDy=0;labelBackgroundColor=none;" parent="1" source="13" target="8" edge="1">
                    <mxGeometry x="-1" relative="1" as="geometry">
                        <mxPoint x="171.5" y="355.62" as="targetPoint"/>
                        <mxPoint x="71.5" y="355.62" as="sourcePoint"/>
                    </mxGeometry>
                </mxCell>
                <mxCell id="15" value="yes" style="edgeStyle=orthogonalEdgeStyle;html=1;align=left;verticalAlign=top;endArrow=open;endSize=8;strokeColor=#ff0000;exitX=0.5;exitY=1;exitDx=0;exitDy=0;entryX=0;entryY=0.5;entryDx=0;entryDy=0;labelBackgroundColor=none;" parent="1" source="13" target="10" edge="1">
                    <mxGeometry x="-1" y="8" relative="1" as="geometry">
                        <mxPoint x="54.620000000000005" y="452" as="targetPoint"/>
                        <mxPoint x="54.620000000000005" y="392" as="sourcePoint"/>
                        <mxPoint x="-3" y="-6" as="offset"/>
                    </mxGeometry>
                </mxCell>
                <mxCell id="19" value="" style="edgeStyle=orthogonalEdgeStyle;html=1;verticalAlign=bottom;endArrow=none;endSize=8;strokeColor=#ff0000;labelBackgroundColor=none;fontFamily=Helvetica;fontSize=18;fontColor=#FFFFFF;exitX=1;exitY=0.5;exitDx=0;exitDy=0;entryX=0.5;entryY=0;entryDx=0;entryDy=0;" parent="1" source="8" target="12" edge="1">
                    <mxGeometry relative="1" as="geometry">
                        <mxPoint x="497.5" y="320" as="targetPoint"/>
                        <mxPoint x="442.5" y="384" as="sourcePoint"/>
                    </mxGeometry>
                </mxCell>
                <mxCell id="20" value="" style="ellipse;html=1;shape=startState;fillColor=#000000;strokeColor=#ff0000;" vertex="1" parent="1">
                    <mxGeometry x="655" y="370" width="40" height="40" as="geometry"/>
                </mxCell>
                <mxCell id="21" value="" style="edgeStyle=orthogonalEdgeStyle;html=1;verticalAlign=bottom;endArrow=open;endSize=8;strokeColor=#ff0000;entryX=0.5;entryY=0;entryDx=0;entryDy=0;exitX=1;exitY=0.5;exitDx=0;exitDy=0;" edge="1" parent="1" source="20" target="22">
                    <mxGeometry relative="1" as="geometry">
                        <mxPoint x="420.5" y="382" as="targetPoint"/>
                        <mxPoint x="440.5" y="300" as="sourcePoint"/>
                    </mxGeometry>
                </mxCell>
                <mxCell id="22" value="&lt;span style=&quot;font-size: 18px;&quot;&gt;user clicks on the save shape button&lt;/span&gt;" style="rounded=1;whiteSpace=wrap;html=1;arcSize=40;fontColor=#000000;fillColor=#ffffc0;strokeColor=#ff0000;strokeWidth=3;" vertex="1" parent="1">
                    <mxGeometry x="640" y="470" width="140" height="86" as="geometry"/>
                </mxCell>
                <mxCell id="23" value="" style="edgeStyle=orthogonalEdgeStyle;html=1;verticalAlign=bottom;endArrow=open;endSize=8;strokeColor=#ff0000;entryX=0.5;entryY=1;entryDx=0;entryDy=0;exitX=0;exitY=0.5;exitDx=0;exitDy=0;" edge="1" parent="1" source="22" target="24">
                    <mxGeometry relative="1" as="geometry">
                        <mxPoint x="259.5" y="412" as="targetPoint"/>
                        <Array as="points">
                            <mxPoint x="640" y="510"/>
                            <mxPoint x="543" y="510"/>
                        </Array>
                    </mxGeometry>
                </mxCell>
                <mxCell id="24" value="checks if the credentials of user exists or are valid" style="rounded=1;whiteSpace=wrap;html=1;arcSize=40;fontColor=#000000;fillColor=#ffffc0;strokeColor=#ff0000;strokeWidth=3;fontSize=18;" vertex="1" parent="1">
                    <mxGeometry x="460.5" y="370" width="165.13" height="100" as="geometry"/>
                </mxCell>
                <mxCell id="25" value="" style="rhombus;whiteSpace=wrap;html=1;fillColor=#ffffc0;strokeColor=#ff0000;strokeWidth=3;fontSize=18;" vertex="1" parent="1">
                    <mxGeometry x="405" y="260" width="30" height="40" as="geometry"/>
                </mxCell>
                <mxCell id="26" value="no" style="edgeStyle=orthogonalEdgeStyle;html=1;align=left;verticalAlign=bottom;endArrow=open;endSize=8;strokeColor=#ff0000;exitX=0.5;exitY=1;exitDx=0;exitDy=0;labelBackgroundColor=none;entryX=0;entryY=0.5;entryDx=0;entryDy=0;" edge="1" parent="1" source="25">
                    <mxGeometry x="-0.8395" y="5" relative="1" as="geometry">
                        <mxPoint x="425" y="573" as="targetPoint"/>
                        <mxPoint x="420" y="310" as="sourcePoint"/>
                        <Array as="points">
                            <mxPoint x="420" y="496"/>
                            <mxPoint x="400" y="496"/>
                            <mxPoint x="400" y="573"/>
                        </Array>
                        <mxPoint as="offset"/>
                    </mxGeometry>
                </mxCell>
                <mxCell id="27" value="" style="edgeStyle=orthogonalEdgeStyle;html=1;verticalAlign=bottom;endArrow=open;endSize=8;strokeColor=#ff0000;entryX=1;entryY=0.5;entryDx=0;entryDy=0;exitX=0.5;exitY=0;exitDx=0;exitDy=0;" edge="1" parent="1" source="24" target="25">
                    <mxGeometry relative="1" as="geometry">
                        <mxPoint x="362.5100000000002" y="400.95" as="targetPoint"/>
                        <Array as="points">
                            <mxPoint x="543" y="280"/>
                        </Array>
                        <mxPoint x="520" y="388" as="sourcePoint"/>
                    </mxGeometry>
                </mxCell>
                <mxCell id="28" value="check if the access token is expired" style="rounded=1;whiteSpace=wrap;html=1;arcSize=40;fontColor=#000000;fillColor=#ffffc0;strokeColor=#ff0000;strokeWidth=3;fontSize=18;" vertex="1" parent="1">
                    <mxGeometry x="425" y="528" width="165.13" height="70" as="geometry"/>
                </mxCell>
                <mxCell id="29" value="" style="rhombus;whiteSpace=wrap;html=1;fillColor=#ffffc0;strokeColor=#ff0000;strokeWidth=3;fontSize=18;" vertex="1" parent="1">
                    <mxGeometry x="660" y="680.0000000000001" width="30" height="40" as="geometry"/>
                </mxCell>
                <mxCell id="30" value="yes" style="edgeStyle=orthogonalEdgeStyle;html=1;align=left;verticalAlign=bottom;endArrow=open;endSize=8;strokeColor=#ff0000;exitX=0.5;exitY=1;exitDx=0;exitDy=0;labelBackgroundColor=none;entryX=1;entryY=0.5;entryDx=0;entryDy=0;" edge="1" parent="1" source="29" target="34">
                    <mxGeometry x="-0.83" y="3" relative="1" as="geometry">
                        <mxPoint x="747.13" y="837.9300000000001" as="targetPoint"/>
                        <mxPoint x="933.8800000000001" y="927.55" as="sourcePoint"/>
                        <Array as="points">
                            <mxPoint x="675" y="740"/>
                        </Array>
                        <mxPoint as="offset"/>
                    </mxGeometry>
                </mxCell>
                <mxCell id="31" value="no" style="edgeStyle=orthogonalEdgeStyle;html=1;align=left;verticalAlign=top;endArrow=open;endSize=8;strokeColor=#ff0000;exitX=0;exitY=0.5;exitDx=0;exitDy=0;labelBackgroundColor=none;entryX=1;entryY=0.5;entryDx=0;entryDy=0;" edge="1" parent="1" source="29" target="33">
                    <mxGeometry x="-0.6886" y="-26" relative="1" as="geometry">
                        <mxPoint x="480" y="718" as="targetPoint"/>
                        <mxPoint x="917" y="963.9300000000001" as="sourcePoint"/>
                        <mxPoint as="offset"/>
                        <Array as="points">
                            <mxPoint x="580" y="700"/>
                            <mxPoint x="580" y="660"/>
                        </Array>
                    </mxGeometry>
                </mxCell>
                <mxCell id="32" value="" style="edgeStyle=orthogonalEdgeStyle;html=1;verticalAlign=bottom;endArrow=open;endSize=8;strokeColor=#ff0000;entryX=0.5;entryY=0;entryDx=0;entryDy=0;exitX=1;exitY=0.5;exitDx=0;exitDy=0;" edge="1" parent="1" source="28" target="29">
                    <mxGeometry relative="1" as="geometry">
                        <mxPoint x="684.6400000000001" y="670.88" as="targetPoint"/>
                        <Array as="points">
                            <mxPoint x="590" y="568"/>
                            <mxPoint x="640" y="568"/>
                            <mxPoint x="640" y="640"/>
                            <mxPoint x="675" y="640"/>
                        </Array>
                        <mxPoint x="664.13" y="686.9300000000001" as="sourcePoint"/>
                    </mxGeometry>
                </mxCell>
                <mxCell id="33" value="error message" style="rounded=1;whiteSpace=wrap;html=1;arcSize=40;fontColor=#000000;fillColor=#ffffc0;strokeColor=#ff0000;strokeWidth=3;fontSize=18;" vertex="1" parent="1">
                    <mxGeometry x="380" y="640" width="165.13" height="40" as="geometry"/>
                </mxCell>
                <mxCell id="34" value="need refresh" style="rounded=1;whiteSpace=wrap;html=1;arcSize=40;fontColor=#000000;fillColor=#ffffc0;strokeColor=#ff0000;strokeWidth=3;fontSize=18;" vertex="1" parent="1">
                    <mxGeometry x="348" y="720" width="154.25" height="40" as="geometry"/>
                </mxCell>
                <mxCell id="35" value="yes" style="edgeStyle=orthogonalEdgeStyle;html=1;align=left;verticalAlign=top;endArrow=open;endSize=8;strokeColor=#ff0000;exitX=0;exitY=0.5;exitDx=0;exitDy=0;entryX=1;entryY=0.5;entryDx=0;entryDy=0;labelBackgroundColor=none;" edge="1" parent="1" source="25" target="6">
                    <mxGeometry x="-0.1685" y="-20" relative="1" as="geometry">
                        <mxPoint x="480.0000000000002" y="270" as="targetPoint"/>
                        <mxPoint x="535.62" y="280" as="sourcePoint"/>
                        <mxPoint as="offset"/>
                        <Array as="points">
                            <mxPoint x="350" y="280"/>
                            <mxPoint x="350" y="170"/>
                            <mxPoint x="292" y="170"/>
                        </Array>
                    </mxGeometry>
                </mxCell>
                <mxCell id="36" value="" style="edgeStyle=orthogonalEdgeStyle;html=1;verticalAlign=bottom;endArrow=none;endSize=8;strokeColor=#ff0000;labelBackgroundColor=none;fontFamily=Helvetica;fontSize=18;fontColor=#FFFFFF;exitX=0;exitY=0.5;exitDx=0;exitDy=0;entryX=1;entryY=0.5;entryDx=0;entryDy=0;" edge="1" parent="1" source="33" target="12">
                    <mxGeometry relative="1" as="geometry">
                        <mxPoint x="340" y="465" as="targetPoint"/>
                        <mxPoint x="279.93" y="645" as="sourcePoint"/>
                    </mxGeometry>
                </mxCell>
                <mxCell id="37" value="" style="edgeStyle=orthogonalEdgeStyle;html=1;verticalAlign=bottom;endArrow=none;endSize=8;strokeColor=#ff0000;labelBackgroundColor=none;fontFamily=Helvetica;fontSize=18;fontColor=#FFFFFF;exitX=0;exitY=0.5;exitDx=0;exitDy=0;entryX=0;entryY=0.5;entryDx=0;entryDy=0;" edge="1" parent="1" source="34" target="12">
                    <mxGeometry relative="1" as="geometry">
                        <mxPoint x="260" y="445" as="targetPoint"/>
                        <mxPoint x="340" y="680" as="sourcePoint"/>
                        <Array as="points">
                            <mxPoint x="250" y="740"/>
                            <mxPoint x="250" y="425"/>
                        </Array>
                    </mxGeometry>
                </mxCell>
            </root>
        </mxGraphModel>
    </diagram>
</mxfile>